<svg width="24" height="24" viewBox="0 0 24 24" fill="none" xmlns="http://www.w3.org/2000/svg">
<path fill-rule="evenodd" clip-rule="evenodd" d="M17.7734 9.0612C15.6681 7.15656 12.0998 4.92168 9.44355 3.85224C8.28867 3.47784 7.32099 3.52008 6.57315 3.97704C5.75427 4.4772 5.22147 5.46408 4.98531 6.93384C4.81251 8.47848 4.72803 10.1018 4.73475 11.7588C4.72803 13.4196 4.81251 15.0439 4.98819 16.6087C5.21091 18.0429 5.73507 19.025 6.54819 19.529C6.96579 19.7882 7.45251 19.9178 8.00451 19.9178C8.44323 19.9178 8.92227 19.8352 9.43971 19.6711C9.45219 19.6672 9.46371 19.6634 9.47427 19.6596C12.1027 18.6007 15.6711 16.3648 17.7686 14.464C18.7613 13.5924 19.2643 12.6832 19.2653 11.7616C19.2653 10.84 18.7613 9.92997 17.7734 9.0612Z" fill="white"/>
</svg>
