<svg width="96" height="96" viewBox="0 0 96 96" fill="none" xmlns="http://www.w3.org/2000/svg">
<path fill-rule="evenodd" clip-rule="evenodd" d="M30.6974 38.8534C32.2094 35.3654 34.1814 32.0934 36.5894 29.0894C36.9334 28.6574 37.0854 28.1014 37.0054 27.5534C36.9294 27.0054 36.6254 26.5174 36.1734 26.2014C34.1694 24.7934 32.1574 23.4294 30.1414 22.0614C29.4494 21.5934 28.5454 21.6054 27.8534 22.0934C19.7294 27.9254 13.8134 36.4414 11.2014 46.0736C9.91738 50.7816 8.51338 59.7496 13.5534 66.9136C16.8334 71.5376 22.5174 74.2816 28.1374 74.2816C29.6334 74.2816 31.1254 74.0896 32.5694 73.6856C38.3174 72.1016 42.7855 67.6536 44.5175 61.7856C46.3175 55.6816 44.9255 49.2696 40.7895 44.6296C38.1534 41.6576 34.5774 39.6294 30.6974 38.8534Z" fill="#F3F3F3"/>
<path fill-rule="evenodd" clip-rule="evenodd" d="M81.5091 44.632C78.8731 41.66 75.2931 39.632 71.4171 38.856C72.9291 35.36 74.9091 32.084 77.3051 29.088C77.6531 28.66 77.8051 28.104 77.7291 27.552C77.6491 27.008 77.3451 26.52 76.8931 26.2C74.8851 24.796 72.8771 23.424 70.8611 22.06C70.1651 21.592 69.2571 21.608 68.5731 22.092C60.4451 27.924 54.5331 36.444 51.9211 46.072C50.6331 50.788 49.2371 59.764 54.2651 66.912C57.5491 71.54 63.2331 74.284 68.8571 74.284C70.3531 74.284 71.8491 74.088 73.2891 73.688C79.0371 72.104 83.5051 67.66 85.2371 61.796C87.0371 55.692 85.6451 49.272 81.5091 44.632Z" fill="#F3F3F3"/>
</svg>
